<?xml version="1.0"?>
<svg xmlns="http://www.w3.org/2000/svg" xmlns:xlink="http://www.w3.org/1999/xlink" version="1.1" id="Layer_1" x="0px" y="0px" viewBox="0 0 512 512" style="enable-background:new 0 0 512 512;" xml:space="preserve" width="512px" height="512px" class=""><g><g>
	<path style="fill:#9371FE" d="M80.523,502.225c-8.391,0-15.193-6.803-15.193-15.193v-256c0-8.39,6.802-15.193,15.193-15.193   s15.193,6.803,15.193,15.193v256C95.716,495.423,88.914,502.225,80.523,502.225z" data-original="#2D527C" class="" data-old_color="#9371fe"/>
	<path style="fill:#9371FE" d="M80.523,146.708c-8.391,0-15.193-6.803-15.193-15.193V90.304c0-8.39,6.802-15.193,15.193-15.193   s15.193,6.803,15.193,15.193v41.211C95.716,139.904,88.914,146.708,80.523,146.708z" data-original="#2D527C" class="" data-old_color="#9371fe"/>
	<path style="fill:#9371FE" d="M256,502.225c-8.391,0-15.193-6.803-15.193-15.193v-94.19c0-8.39,6.802-15.193,15.193-15.193   c8.391,0,15.193,6.803,15.193,15.193v94.19C271.193,495.423,264.391,502.225,256,502.225z" data-original="#2D527C" class="" data-old_color="#9371fe"/>
	<path style="fill:#9371FE" d="M256,204.443c-8.391,0-15.193-6.803-15.193-15.193V24.968c0-8.39,6.802-15.193,15.193-15.193   c8.391,0,15.193,6.803,15.193,15.193v164.283C271.193,197.641,264.391,204.443,256,204.443z" data-original="#2D527C" class="" data-old_color="#9371fe"/>
	<path style="fill:#9371FE" d="M431.477,502.225c-8.391,0-15.193-6.803-15.193-15.193V273.566c0-8.39,6.802-15.193,15.193-15.193   c8.391,0,15.193,6.803,15.193,15.193v213.467C446.67,495.423,439.868,502.225,431.477,502.225z" data-original="#2D527C" class="" data-old_color="#9371fe"/>
	<path style="fill:#9371FE" d="M431.477,151.267c-8.391,0-15.193-6.803-15.193-15.193V24.968c0-8.39,6.802-15.193,15.193-15.193   c8.391,0,15.193,6.803,15.193,15.193v111.108C446.67,144.465,439.868,151.267,431.477,151.267z" data-original="#2D527C" class="" data-old_color="#9371fe"/>
</g><circle style="fill:#DBCBFF" cx="80.523" cy="90.307" r="65.33" data-original="#CEE8FA" class="active-path" data-old_color="#dbcbff"/><g>
	<path style="fill:#9371FE" d="M80.523,170.827C36.123,170.827,0,134.705,0,90.304S36.123,9.781,80.523,9.781   s80.523,36.121,80.523,80.523S124.923,170.827,80.523,170.827z M80.523,40.167c-27.645,0-50.137,22.492-50.137,50.137   s22.492,50.137,50.137,50.137s50.137-22.492,50.137-50.137S108.168,40.167,80.523,40.167z" data-original="#2D527C" class="" data-old_color="#9371fe"/>
	<path style="fill:#9371FE" d="M256,408.035c-44.4,0-80.523-36.121-80.523-80.523S211.6,246.989,256,246.989   s80.523,36.121,80.523,80.523c0,13.59-3.453,27.03-9.986,38.865c-4.055,7.346-13.298,10.014-20.643,5.959   c-7.346-4.055-10.014-13.297-5.959-20.644c4.058-7.35,6.203-15.713,6.203-24.18c0-27.645-22.492-50.137-50.137-50.137   s-50.137,22.492-50.137,50.137c0,27.645,22.492,50.137,50.137,50.137c8.391,0,15.193,6.803,15.193,15.193   C271.194,401.231,264.391,408.035,256,408.035z" data-original="#2D527C" class="" data-old_color="#9371fe"/>
</g><circle style="fill:#DBCBFF" cx="431.48" cy="136.068" r="65.33" data-original="#CEE8FA" class="active-path" data-old_color="#dbcbff"/><path style="fill:#9371FE" d="M431.477,216.597c-44.4,0-80.523-36.121-80.523-80.523s36.123-80.523,80.523-80.523  S512,91.673,512,136.074S475.877,216.597,431.477,216.597z M431.477,85.938c-27.645,0-50.137,22.492-50.137,50.137  s22.492,50.137,50.137,50.137c27.645,0,50.137-22.492,50.137-50.137S459.122,85.938,431.477,85.938z" data-original="#2D527C" class="" data-old_color="#9371fe"/></g> </svg>
